HIERARCHY
ROOT Hips
{
    OFFSET 0.000000 0.000000 0.000000
    CHANNELS 6 Xposition Yposition Zposition Zrotation Xrotation Yrotation
    JOINT Spine
    {
        OFFSET -0.000000 8.249566 0.000000
        CHANNELS 3 Zrotation Xrotation Yrotation
        JOINT Spine1
        {
            OFFSET -0.000000 22.751984 0.000000
            CHANNELS 3 Zrotation Xrotation Yrotation
            JOINT Neck
            {
                OFFSET -0.000000 22.658548 2.059868
                CHANNELS 3 Zrotation Xrotation Yrotation
                JOINT Head
                {
                    OFFSET -0.000000 14.084625 -2.012089
                    CHANNELS 3 Zrotation Xrotation Yrotation
                    End Site
                    {
                        OFFSET -0.000000 25.151115 0.000000
                    }
                }
            }
            JOINT LeftShoulder
            {
                OFFSET 4.014710 20.418900 0.142539
                CHANNELS 3 Zrotation Xrotation Yrotation
                JOINT LeftArm
                {
                    OFFSET 12.409162 0.000000 0.000000
                    CHANNELS 3 Zrotation Xrotation Yrotation
                    JOINT LeftForeArm
                    {
                        OFFSET 32.111938 0.000000 0.000000
                        CHANNELS 3 Zrotation Xrotation Yrotation
                        JOINT LeftHand
                        {
                            OFFSET 25.320286 0.000000 0.000000
                            CHANNELS 3 Zrotation Xrotation Yrotation
                            End Site
                            {
                                OFFSET 15.090670 0.000000 0.000000
                            }
                        }
                    }
                }
            }
            JOINT RightShoulder
            {
                OFFSET -4.019371 20.418900 0.142539
                CHANNELS 3 Zrotation Xrotation Yrotation
                JOINT RightArm
                {
                    OFFSET -12.409162 0.000000 0.000000
                    CHANNELS 3 Zrotation Xrotation Yrotation
                    JOINT RightForeArm
                    {
                        OFFSET -32.111938 0.000000 0.000000
                        CHANNELS 3 Zrotation Xrotation Yrotation
                        JOINT RightHand
                        {
                            OFFSET -25.320286 0.000000 0.000000
                            CHANNELS 3 Zrotation Xrotation Yrotation
                            End Site
                            {
                                OFFSET -15.090670 0.000000 0.000000
                            }
                        }
                    }
                }
            }
        }
    }
    JOINT LeftUpLeg
    {
        OFFSET 10.060447 0.000000 0.000000
        CHANNELS 3 Zrotation Xrotation Yrotation
        JOINT LeftLeg
        {
            OFFSET -0.000000 -49.683781 0.000000
            CHANNELS 3 Zrotation Xrotation Yrotation
            JOINT LeftFoot
            {
                OFFSET -0.000000 -37.035061 0.000000
                CHANNELS 3 Zrotation Xrotation Yrotation
                JOINT LeftToeBase
                {
                    OFFSET -0.000000 -6.539289 15.090670
                    CHANNELS 3 Zrotation Xrotation Yrotation
                    End Site
                    {
                        OFFSET -0.000000 0.000000 4.024179
                    }
                }
            }
        }
    }
    JOINT RightUpLeg
    {
        OFFSET -10.060447 0.000000 0.000000
        CHANNELS 3 Zrotation Xrotation Yrotation
        JOINT RightLeg
        {
            OFFSET -0.000000 -49.683781 0.000000
            CHANNELS 3 Zrotation Xrotation Yrotation
            JOINT RightFoot
            {
                OFFSET -0.000000 -37.035061 0.000000
                CHANNELS 3 Zrotation Xrotation Yrotation
                JOINT RightToeBase
                {
                    OFFSET -0.000000 -6.539289 15.090670
                    CHANNELS 3 Zrotation Xrotation Yrotation
                    End Site
                    {
                        OFFSET -0.000000 0.000000 4.024179
                    }
                }
            }
        }
    }
}
MOTION
Frames:    4
Frame Time:    0.008333
-2.548649    97.975578    217.077011    0.845045    0.173662    177.731918    1.514840    5.294017    0.216463    0.469435    -3.551791    0.301040    1.408893    7.234560    0.988398    0.256034    -1.090530    0.949765    19.534321    -3.500453    -2.763797    -24.951754    1.011123    2.458140    0.807271    5.089934    0.308634    -2.486868    5.243504    -7.194827    -20.655947    -2.797830    -6.197202    24.629816    0.742336    10.466932    2.695082    4.942320    -2.105316    -5.162035    5.061552    -1.556152    4.867527    -1.815352    -1.945247    -2.342817    4.741738    0.975214    0.348876    -2.800627    0.918063    0.000000    0.000000    0.000000    -2.463856    -3.507707    -2.366985    1.778819    9.287205    -0.593548    -1.486756    -3.787316    -5.523409    0.000000    0.000000    0.000000    
-2.548942    97.971138    217.070953    0.843591    0.187229    177.736618    1.517130    5.286263    0.216971    0.464210    -3.517195    0.301514    1.410777    7.252849    1.003897    0.276857    -1.126406    0.969270    19.548483    -3.497167    -2.740361    -24.959610    1.039607    2.432775    0.783597    5.114716    0.253247    -2.389433    5.257298    -6.938584    -20.664783    -2.803901    -6.208642    24.649279    0.742927    10.463838    2.685985    4.937309    -2.101563    -5.113118    5.055286    -1.548182    4.865804    -1.813824    -1.931698    -2.346697    4.772334    0.975724    0.380998    -2.820400    0.902763    0.000000    0.000000    0.000000    -2.463009    -3.516092    -2.361029    1.770003    9.355544    -0.537202    -1.524011    -3.846087    -5.726305    0.000000    0.000000    0.000000    
-2.550485    97.970459    217.065475    0.839150    0.201883    177.754608    1.515858    5.287457    0.214104    0.461990    -3.503874    0.298358    1.439471    7.271752    1.009251    0.244314    -1.136258    0.967702    19.554398    -3.503665    -2.734455    -24.962601    1.038680    2.415894    0.790408    5.119543    0.267894    -2.330301    5.257587    -6.897289    -20.663698    -2.794958    -6.221818    24.653048    0.731330    10.466566    2.691452    4.918652    -2.092778    -5.126168    5.037548    -1.567017    4.848077    -1.821820    -1.929193    -2.322312    4.821911    1.010661    0.364448    -2.839288    0.858220    0.000000    0.000000    0.000000    -2.462808    -3.531580    -2.377792    1.753847    9.427613    -0.589373    -1.270252    -3.968867    -5.530509    0.000000    0.000000    0.000000    
-2.552128    97.967575    217.058273    0.836095    0.221780    177.768112    1.514805    5.285835    0.212450    0.457979    -3.487677    0.296394    1.455134    7.304723    1.001505    0.245396    -1.141292    0.959000    19.564024    -3.506705    -2.745188    -24.965973    1.022210    2.416454    0.788513    5.111413    0.263839    -2.306236    5.244185    -6.705199    -20.656483    -2.802147    -6.216569    24.658541    0.735633    10.450371    2.678529    4.898344    -2.092511    -5.149421    5.016804    -1.555880    4.846037    -1.814485    -1.934550    -2.321516    4.863364    0.950816    0.337743    -2.885101    0.886227    0.000000    0.000000    0.000000    -2.468080    -3.529035    -2.384511    1.755837    9.480485    -0.572566    -1.499274    -3.895992    -5.571386    0.000000    0.000000    0.000000    
